<?xml version="1.0" ?><svg data-name="Слой 1" id="Слой_1" viewBox="0 0 128 128" xmlns="http://www.w3.org/2000/svg"><title/><path d="M22.82,33.77a2,2,0,0,1-1.68-.91l-6.23-9.57-2.71,5a2,2,0,0,1-3.45.09L.3,14.6a2,2,0,1,1,3.4-2.09l6.65,10.8L13,18.43a2,2,0,0,1,3.43-.13l8,12.38a2,2,0,0,1-.58,2.76A2,2,0,0,1,22.82,33.77Z"/><path d="M36.33,19.23a2,2,0,0,1-2-1.58l-1.22-5.72-1.72,1.46a2,2,0,0,1-2,.36,2,2,0,0,1-1.3-1.51L26.31,2.37a2,2,0,1,1,3.93-.74l1.22,6.48,1.64-1.4a2,2,0,0,1,3.25,1.1l1.94,9a2,2,0,0,1-2,2.42Z"/><path d="M72,128a2,2,0,0,1-2-1.57,100.61,100.61,0,0,0-6.29-18.53c-4.1,1-12.44,1.08-13.57.69-3.14-1.08-7.63-4.22-7.09-8.44l.23-1.78c.28-2.11.63-4.72.43-5.37a7.64,7.64,0,0,0-.86-1.61,3.53,3.53,0,0,1-.83-2.85A4.85,4.85,0,0,1,42.81,87c-1.68-1.16-4.21-3-2.88-5.36a9.76,9.76,0,0,0,.71-2.93c-.57-.23-1.43-.51-2-.7a10.93,10.93,0,0,1-3.38-1.46A6.44,6.44,0,0,1,34,69.19l.37-.65c5.11-9.11,6.14-11.56,6.33-12.22a8.2,8.2,0,0,0-1.4-2.13c-.26-.33-.5-.64-.7-.92-1.61-2.25-.71-22-.7-22.21.19-3.55,3.08-8.72,8.57-15.35C57.93,1.8,72.09-.47,82,.07,94.39.76,105,6,110.84,10.61,123.6,20.79,127,37.53,126,49.79c-.46,5.49-4.35,15.39-7.79,24.13-2.23,5.69-4.55,11.57-4.63,13.24-.16,3.38.53,9.24,2.24,11.44.83,1.07,3.27,2.45,5.42,3.67,3.51,2,6.28,3.55,6.72,5.78a2,2,0,0,1-3.9.89c-.46-.74-3.16-2.27-4.79-3.19-2.72-1.54-5.29-3-6.61-4.7-2.9-3.72-3.2-11.43-3.07-14.08.1-2.22,1.84-6.73,4.9-14.52,3.17-8.06,7.11-18.09,7.53-23,.32-3.88,1.2-23.84-13.67-35.71C98,5.44,68.7-4.94,49.5,18.26,44.78,24,42,28.72,41.84,31.29c-.27,4.91-.37,17.64.11,19.85.13.18.28.36.43.55,1,1.28,2.28,2.86,2.28,4.72,0,1-.52,2.81-6.85,14.09l-.36.64a2.77,2.77,0,0,0,.37,2.3,20.43,20.43,0,0,0,2,.72c2.57.84,4.43,1.44,4.72,3.22a12.59,12.59,0,0,1-.79,5.34c.43.36,1.11.83,1.48,1.09A10.81,10.81,0,0,1,46.77,85a2.54,2.54,0,0,1,.8,1.87,2.86,2.86,0,0,1-1.13,2.09l-.24.23.06.11a11.63,11.63,0,0,1,1.28,2.48c.49,1.47.19,3.73-.26,7.16l-.23,1.76c-.19,1.49,2.18,3.39,4.42,4.16A56.58,56.58,0,0,0,63.26,104a2.15,2.15,0,0,1,1.8-.28c.86.25,1.84.54,4.81,8.52a107.17,107.17,0,0,1,4.07,13.38A2,2,0,0,1,72.42,128,2.18,2.18,0,0,1,72,128Zm52.09-19Zm0-.14ZM65.77,107a2.42,2.42,0,0,1-.73.45A1.79,1.79,0,0,0,65.77,107ZM63,104.19l0,0ZM45.89,88.63Z"/><path d="M77,70a25,25,0,0,1-8.9-1.65,2,2,0,0,1,1.42-3.74A21,21,0,0,0,96.62,52.47a2,2,0,1,1,3.74,1.42A25.08,25.08,0,0,1,77,70Z"/><path d="M55.51,38.82a1.94,1.94,0,0,1-.71-.13,2,2,0,0,1-1.16-2.58A25,25,0,0,1,85.89,21.64a2,2,0,1,1-1.42,3.74A21,21,0,0,0,57.38,37.53,2,2,0,0,1,55.51,38.82Z"/><path d="M77,61.42l-.68,0a2,2,0,1,1,.16-4,12.42,12.42,0,0,0,12.92-11.9,2,2,0,1,1,4,.16A16.44,16.44,0,0,1,77,61.42Z"/><path d="M62.6,46.41h-.09a2,2,0,0,1-1.91-2.08A16.43,16.43,0,0,1,77.67,28.6a2,2,0,1,1-.16,4,12.44,12.44,0,0,0-12.92,11.9A2,2,0,0,1,62.6,46.41Z"/><path d="M77,53h-.34A7.81,7.81,0,1,1,77,53Zm0-12a3.81,3.81,0,1,0,.16,0H77Z"/></svg>