<?xml version="1.0" ?><svg data-name="Слой 1" id="Слой_1" viewBox="0 0 128 128" xmlns="http://www.w3.org/2000/svg"><title/><path d="M122,104H6a6,6,0,0,1-6-6V14A6,6,0,0,1,6,8H122a6,6,0,0,1,6,6V98A6,6,0,0,1,122,104ZM6,12a2,2,0,0,0-2,2V98a2,2,0,0,0,2,2H122a2,2,0,0,0,2-2V14a2,2,0,0,0-2-2Z"/><path d="M97,120H31a2,2,0,0,1,0-4H97a2,2,0,0,1,0,4Z"/><path d="M64,120a2,2,0,0,1-2-2V102a2,2,0,0,1,4,0v16A2,2,0,0,1,64,120Z"/><path d="M81.33,29.3c-2.91-2.1-5.25-2.76-7-2-1,.47-3.5,1.61-3.82,12.55A12.21,12.21,0,0,0,66,38.23V21.5a2,2,0,0,0-4,0V38.22a12.3,12.3,0,0,0-4.55,1.62c-.32-10.91-2.78-12.05-3.82-12.52-1.71-.78-4.05-.12-7,2C36.47,36.65,21.49,59.37,24.7,89A3.28,3.28,0,0,0,27.81,92a3.86,3.86,0,0,0,.6,0c6.38,0,22-9.92,25.17-18.83,1.76-5,3.31-15.35,3.77-25.16,0-.95.07-1.84.09-2.7l.09-.12c1.13-1.9,3.67-3.14,6.46-3.14s5.44,1.28,6.53,3.25l0,.05c0,.85,0,1.72.09,2.66.46,9.81,2,20.16,3.77,25.16C77.55,82.08,93.21,92,99.59,92a3.86,3.86,0,0,0,.6,0A3.28,3.28,0,0,0,103.3,89C106.51,59.37,91.53,36.65,81.33,29.3ZM49.81,71.85C47.05,79.69,32.49,88,28.66,88h-.05c-2.35-23.43,7-42.29,16.65-52.18C49,32,51.32,31.1,52,31,54.83,34.19,53.41,61.58,49.81,71.85ZM99.39,88c-3.78,0-18.43-8.31-21.2-16.18C74.59,61.58,73.17,34.19,76,31c.66.09,3,1,6.73,4.84C92.36,45.74,101.74,64.6,99.39,88Z"/></svg>