<svg xmlns="http://www.w3.org/2000/svg" xmlns:xlink="http://www.w3.org/1999/xlink" version="1.1" x="0px" y="0px" viewBox="0 0 100 125" enable-background="new 0 0 100 100" xml:space="preserve"><g><path d="M50.466,31.021c6.651,0,12.062-5.411,12.062-12.062c0-6.651-5.411-12.062-12.062-12.062   c-6.651,0-12.062,5.41-12.062,12.062C38.404,25.61,43.814,31.021,50.466,31.021z M50.466,11.536c4.093,0,7.423,3.331,7.423,7.424   s-3.33,7.423-7.423,7.423s-7.423-3.33-7.423-7.423S46.373,11.536,50.466,11.536z"/><path d="M89.315,61.584c-4.655-0.665-11.573-8.467-16.826-18.971c-5.074-10.147-21.85-9.749-22.559-9.729   c-0.135,0.004-0.266,0.026-0.394,0.053c-0.126-0.025-0.254-0.049-0.387-0.052c-0.671-0.023-16.56-0.422-21.635,9.729   c-4.69,9.379-11.608,16.451-16.826,17.195C8.33,60.146,7,61.156,6.3,61.944c-1.023,1.151-1.465,2.634-1.245,4.178   c0.472,3.299,4.075,6.411,9.074,5.702c8.119-1.16,14.867-5.497,20.118-12.915c0.747,4.576,0.832,11.336-3.456,16.315   c-3.713-0.595-11.228-1.318-15.382,1.636c-1.703,1.212-2.729,2.938-2.97,4.997c-0.369,3.162,0.365,5.71,2.182,7.573   c2.682,2.749,7.472,3.671,14.224,3.671c5.615,0,12.587-0.639,20.826-1.392l4.25-0.387c0.249-0.022,0.478-0.093,0.694-0.185   c6.98,1.245,12.873,1.882,17.525,1.882c7.235,0,11.779-1.492,13.895-4.564c1.015-1.472,1.918-4.028,0.464-7.835   c-1.729-4.529-6.739-5.111-10.91-5.111c-1.311,0-2.716,0.066-4.18,0.158c-0.107-0.162-0.229-0.314-0.381-0.451   c-4.184-3.718-4.845-10.354-4.656-15.312c7.68,10.828,15.962,13.189,19.502,13.694c2.228,0.315,4.392-0.118,6.086-1.231   c1.646-1.081,2.736-2.712,2.988-4.471C95.318,65.297,93.716,62.214,89.315,61.584z M17.941,86.19   c-0.513-0.524-1.163-1.491-0.895-3.797c0.089-0.758,0.412-1.298,1.048-1.751c2.278-1.621,7.526-1.488,11.464-0.915   c-0.072,2.716,1.849,5.06,4.96,5.95c1.207,0.343,2.262,0.732,3.482,1.182c0.828,0.307,1.718,0.635,2.75,0.98   C29.281,88.78,20.671,88.988,17.941,86.19z M82.166,82.276c0.589,1.545,0.605,2.739,0.048,3.549   c-0.658,0.954-2.84,2.557-10.074,2.557c-5.245,0-12.229-0.864-20.756-2.571c-6.158-1.231-9.144-2.333-11.779-3.303   c-1.254-0.463-2.438-0.899-3.812-1.292c-1.05-0.299-1.675-0.884-1.59-1.485c0.101-0.718,1.316-1.854,4.152-1.854   c1.648,0,3.552,0.377,5.658,1.121c3.921,1.383,8.508,2.057,14.021,2.057c3.533,0,7.063-0.27,10.178-0.507   c2.68-0.205,5.212-0.398,7.376-0.398C80.698,80.149,81.788,81.286,82.166,82.276z M90.026,67.937   c-0.259,0.331-1.276,1.388-3.495,1.071c-7.084-1.013-14.427-7.397-19.641-17.082c-0.458-0.853-1.401-1.334-2.358-1.198   c-0.958,0.131-1.735,0.846-1.947,1.789c-0.148,0.659-3.218,14.78,3.041,23.572c-2.479,0.179-5.014,0.325-7.591,0.325   c-4.979,0-9.06-0.586-12.478-1.792c-2.603-0.918-5.026-1.384-7.202-1.384c-0.316,0-0.621,0.012-0.919,0.03   c4.168-9.596,0.095-20.526-0.113-21.071c-0.325-0.849-1.113-1.429-2.018-1.485c-0.91-0.064-1.761,0.416-2.191,1.214   c-4.838,8.985-11.446,14.135-19.64,15.307c-2.217,0.319-3.236-0.74-3.495-1.071c-0.278-0.353-0.401-0.75-0.306-0.985   c0.105-0.263,0.606-0.621,1.673-0.773c8.315-1.188,16.143-11.363,20.319-19.714c3.73-7.463,17.101-7.175,17.334-7.167   c0.193,0.007,0.377-0.014,0.557-0.05c0.167,0.033,0.339,0.054,0.518,0.05c4.033-0.125,15.145,0.923,18.267,7.167   c4.837,9.677,12.716,20.402,20.319,21.489c1.066,0.152,1.567,0.511,1.673,0.773C90.426,67.188,90.304,67.584,90.026,67.937z"/></g><text x="0" y="115" fill="#000000" font-size="5px" font-weight="bold" font-family="'Helvetica Neue', Helvetica, Arial-Unicode, Arial, Sans-serif">Created by Matt Brooks</text><text x="0" y="120" fill="#000000" font-size="5px" font-weight="bold" font-family="'Helvetica Neue', Helvetica, Arial-Unicode, Arial, Sans-serif">from the Noun Project</text></svg>