<?xml version="1.0" ?><svg data-name="Слой 1" id="Слой_1" viewBox="0 0 128 128" xmlns="http://www.w3.org/2000/svg"><title/><path d="M128,108c-.44-2.22-3.21-3.79-6.72-5.77-2.15-1.22-4.59-2.6-5.42-3.67-1.71-2.2-2.4-8.06-2.24-11.44.08-1.67,2.4-7.55,4.63-13.24,3.44-8.74,7.33-18.64,7.79-24.13,1-12.27-2.4-29-15.16-39.18C105,6,94.39.76,82,.07c-9.87-.54-24,1.72-35.54,15.63C40.93,22.34,38,27.51,37.85,31.06c0,.2-.91,20,.7,22.21.2.28.44.59.7.91a8.41,8.41,0,0,1,1.4,2.14c-.19.66-1.22,3.11-6.33,12.22l-.37.65a6.42,6.42,0,0,0,1.3,7.31A10.66,10.66,0,0,0,38.63,78c.58.19,1.44.47,2,.7a9.76,9.76,0,0,1-.71,2.93c-1.42,2.49,1.61,4.33,4.29,6l.54.33c-.26.42-.6.91-.84,1.27a12.24,12.24,0,0,0-1.85,3.33c-.42,1.56.86,2.44,1.7,3a7.56,7.56,0,0,1,1.34,1.08,5.63,5.63,0,0,1-.17.59,21,21,0,0,0-.86,4c-.54,4.22,4,7.36,7.09,8.44,1.55.53,8.88-.44,12.6-1.62A101.12,101.12,0,0,1,70,126.43,2,2,0,0,0,72,128a2.18,2.18,0,0,0,.43,0,2,2,0,0,0,1.52-2.38,107.17,107.17,0,0,0-4.07-13.38c-3-8-4-8.27-4.81-8.52a2.15,2.15,0,0,0-1.89.34,46.94,46.94,0,0,1-10.78,1.77c-2.22-.79-4.53-2.66-4.34-4.13a16.43,16.43,0,0,1,.71-3.27,4.45,4.45,0,0,0,.14-3,6.14,6.14,0,0,0-2.43-2.85l.75-1.11c1.34-2,2.85-4.17,1.19-5.83a11.67,11.67,0,0,0-2.12-1.45c-.62-.38-1.77-1.07-2.42-1.58a12.73,12.73,0,0,0,.72-5.18c-.29-1.77-2.15-2.37-4.72-3.21a20.43,20.43,0,0,1-2-.72,2.77,2.77,0,0,1-.37-2.3l.36-.64c6.33-11.28,6.85-13.1,6.85-14.09,0-1.86-1.26-3.44-2.28-4.72L42,51.14c-.48-2.21-.38-14.94-.11-19.86.14-2.56,2.94-7.31,7.66-13C68.7-4.94,98,5.44,108.35,13.74c14.87,11.87,14,31.83,13.67,35.71-.42,4.91-4.36,14.94-7.53,23-3.06,7.79-4.8,12.3-4.9,14.52-.13,2.65.17,10.36,3.07,14.08,1.32,1.7,3.89,3.16,6.61,4.7,1.63.92,4.33,2.45,4.79,3.19a2,2,0,0,0,3.9-.9Zm-62.19-1a2,2,0,0,1-.64.42A2.52,2.52,0,0,0,65.77,107Z"/><path d="M37.09,124.89a37.64,37.64,0,0,0-8.28-8.42,17.37,17.37,0,0,1-2.54-2.24,86.69,86.69,0,0,0-4.58-9.47c-.48-.89-1-1.86-1.61-3a25.28,25.28,0,0,0-2.5-3.89c.66-2,1.25-3.65,1.76-5.11,1.72-4.91,2.66-7.61,3.07-11.55.38-3.59-.76-6.57-3-7.79a4.7,4.7,0,0,0-5.3.63C12.08,75.67,7.57,85.71,4.2,96.14a4.1,4.1,0,0,0-.83,2.64c-2.67,8.8-4.31,17.4-2.79,21,1.79,4.24,3,7,3,7A2,2,0,0,0,5.43,128a1.92,1.92,0,0,0,.8-.17,2,2,0,0,0,1-2.63s-1.22-2.77-3-7c-.83-2,0-7,1.46-12.83.56,1,1.16,2,1.77,3a29.08,29.08,0,0,1,2.17,4,88.09,88.09,0,0,1,2.78,10,2,2,0,0,0,3.95-.66,85.8,85.8,0,0,0-2.93-10.53,26.86,26.86,0,0,0-2.55-4.81c-1-1.64-3.06-5.08-3.51-6.88.14-.45.28-.91.43-1.37a2.94,2.94,0,0,1,2.25-.73c2.11.22,4.46,2.5,6.45,6.27.61,1.17,1.15,2.15,1.64,3a82.38,82.38,0,0,1,4.4,9.1c.53,1.26,1.8,2.28,3.73,3.83a34.39,34.39,0,0,1,7.45,7.51,2,2,0,0,0,1.67.89,2,2,0,0,0,1.1-.34A2,2,0,0,0,37.09,124.89ZM10.49,93.37a7.93,7.93,0,0,0-1.09,0c2.77-8,5.82-15,7.21-16.17.37-.3.67-.39.89-.27.51.28,1.18,1.55.94,3.87-.37,3.48-1.21,5.87-2.88,10.65-.35,1-.75,2.15-1.18,3.4A8.52,8.52,0,0,0,10.49,93.37Z"/><path d="M26,94a2,2,0,1,1,2-2h0A2,2,0,0,1,26,94Z"/><path d="M37,94a2,2,0,1,1,2-2h0A2,2,0,0,1,37,94Z"/><path d="M32,110a2,2,0,1,1,2-2h0A2,2,0,0,1,32,110Z"/><path d="M84,116a25,25,0,0,1-8.9-1.65,2,2,0,1,1,1.42-3.74,21,21,0,0,0,27.09-12.15,2,2,0,1,1,3.74,1.42A25.08,25.08,0,0,1,84,116Z"/><path d="M62.51,84.82a1.94,1.94,0,0,1-.71-.13,2,2,0,0,1-1.16-2.58A25,25,0,0,1,92.89,67.64a2,2,0,1,1-1.42,3.74A21,21,0,0,0,64.38,83.53,2,2,0,0,1,62.51,84.82Z"/><path d="M84,107.42l-.68,0a2,2,0,0,1-1.92-2.08,2,2,0,0,1,2.08-1.91,12.42,12.42,0,0,0,12.92-11.9,2,2,0,1,1,4,.16A16.44,16.44,0,0,1,84,107.42Z"/><path d="M69.6,92.41h-.09a2,2,0,0,1-1.91-2.08A16.44,16.44,0,0,1,84.67,74.6a2,2,0,1,1-.16,4,12.44,12.44,0,0,0-12.92,11.9A2,2,0,0,1,69.6,92.41Z"/><path d="M84,99h-.34A7.81,7.81,0,1,1,84,99Zm0-12a3.81,3.81,0,1,0,.16,0H84Z"/></svg>