<?xml version="1.0" ?><svg data-name="Слой 1" id="Слой_1" viewBox="0 0 128 128" xmlns="http://www.w3.org/2000/svg"><title/><path d="M72,128a2,2,0,0,1-2-1.57,99.49,99.49,0,0,0-6.3-18.53c-4.09,1-12.43,1.08-13.56.69-3.14-1.08-7.63-4.21-7.09-8.44l.23-1.78c.28-2.1.63-4.72.43-5.37a7.64,7.64,0,0,0-.86-1.61,3.56,3.56,0,0,1-.83-2.85A4.85,4.85,0,0,1,42.81,87c-1.68-1.16-4.21-3-2.88-5.36a9.47,9.47,0,0,0,.71-2.93c-.57-.23-1.43-.51-2-.7a10.93,10.93,0,0,1-3.38-1.46A6.44,6.44,0,0,1,34,69.19l.38-.66c5.1-9.1,6.13-11.55,6.32-12.21a8.2,8.2,0,0,0-1.4-2.13c-.26-.33-.5-.64-.7-.92-1.61-2.25-.71-22-.7-22.21.19-3.55,3.08-8.71,8.57-15.35C57.93,1.8,72.1-.47,82,.07,94.38.76,105,6,110.84,10.61,123.6,20.79,127,37.53,126,49.79c-.46,5.49-4.35,15.39-7.79,24.13-2.23,5.69-4.55,11.57-4.63,13.24-.16,3.38.53,9.24,2.24,11.44.83,1.07,3.27,2.45,5.42,3.67,3.51,2,6.27,3.55,6.72,5.77a2,2,0,0,1-3.9.9c-.46-.74-3.16-2.27-4.79-3.19-2.72-1.54-5.29-3-6.61-4.7-2.9-3.72-3.2-11.43-3.07-14.08.1-2.22,1.84-6.73,4.9-14.52,3.17-8.06,7.11-18.09,7.53-23,.33-3.88,1.2-23.84-13.67-35.71C98,5.44,68.7-4.94,49.5,18.26,44.78,24,42,28.72,41.84,31.29c-.27,4.91-.37,17.64.11,19.85.13.18.28.36.43.55,1,1.28,2.28,2.86,2.28,4.72,0,1-.52,2.81-6.84,14.07l-.37.66a2.77,2.77,0,0,0,.37,2.3,20.43,20.43,0,0,0,2,.72c2.57.84,4.43,1.44,4.72,3.22a12.59,12.59,0,0,1-.79,5.34c.43.36,1.11.83,1.48,1.09A10.81,10.81,0,0,1,46.77,85a2.54,2.54,0,0,1,.8,1.87,2.86,2.86,0,0,1-1.13,2.09l-.24.23.06.11a11.63,11.63,0,0,1,1.28,2.48c.49,1.47.19,3.74-.26,7.17l-.23,1.75c-.19,1.49,2.18,3.39,4.42,4.16A56.63,56.63,0,0,0,63.26,104a2.16,2.16,0,0,1,1.8-.28c.86.25,1.84.54,4.81,8.52a107.17,107.17,0,0,1,4.07,13.38A2,2,0,0,1,72.42,128,2.18,2.18,0,0,1,72,128ZM124,108.83ZM65.77,107a2.42,2.42,0,0,1-.73.45A1.86,1.86,0,0,0,65.77,107ZM63,104.19l0,0Zm-22.29-48Z"/><path d="M18,15H10a2,2,0,0,0-2,2V43a2,2,0,0,0,2,2h8a2,2,0,0,0,2-2V17A2,2,0,0,0,18,15ZM12,41V19h4V41Z"/><path d="M14,0A14,14,0,0,0,0,14V76c0,2.74,1.36,7.87,4,15.25a32.45,32.45,0,0,1,2,11.16V120a8,8,0,0,0,16,0V102.41A32.68,32.68,0,0,1,24,91.25C26.64,83.87,28,78.74,28,76V14A14,14,0,0,0,14,0Zm0,124a4,4,0,0,1-4-4v-7h8v7A4,4,0,0,1,14,124ZM24,76c0,2.18-1.39,7.24-3.8,13.88A36.45,36.45,0,0,0,18,102.41V109H10v-6.59A36.45,36.45,0,0,0,7.8,89.88C5.39,83.24,4,78.18,4,76V14a10,10,0,0,1,20,0Z"/><path d="M65,55a2,2,0,0,1-2-2,15.55,15.55,0,0,1,1.39-6.76A11.66,11.66,0,0,0,65.47,41a11.67,11.67,0,0,0-1.08-5.24A15.57,15.57,0,0,1,63,29a15.55,15.55,0,0,1,1.39-6.76A11.71,11.71,0,0,0,65.47,17a2,2,0,0,1,4,0,15.48,15.48,0,0,1-1.39,6.76A11.74,11.74,0,0,0,67,29a11.67,11.67,0,0,0,1.08,5.24A15.57,15.57,0,0,1,69.47,41a15.46,15.46,0,0,1-1.39,6.75A11.74,11.74,0,0,0,67,53,2,2,0,0,1,65,55Z"/><path d="M77.76,55a2,2,0,0,1-2-2,15.55,15.55,0,0,1,1.39-6.76A11.64,11.64,0,0,0,78.24,41a11.66,11.66,0,0,0-1.09-5.24A15.57,15.57,0,0,1,75.76,29a15.55,15.55,0,0,1,1.39-6.76A11.69,11.69,0,0,0,78.24,17a2,2,0,0,1,4,0,15.48,15.48,0,0,1-1.39,6.76A11.72,11.72,0,0,0,79.76,29a11.66,11.66,0,0,0,1.09,5.24A15.57,15.57,0,0,1,82.24,41a15.46,15.46,0,0,1-1.39,6.75A11.72,11.72,0,0,0,79.76,53,2,2,0,0,1,77.76,55Z"/><path d="M90.53,55a2,2,0,0,1-2-2,15.55,15.55,0,0,1,1.39-6.76A11.66,11.66,0,0,0,91,41a11.67,11.67,0,0,0-1.08-5.24A15.57,15.57,0,0,1,88.53,29a15.55,15.55,0,0,1,1.39-6.76A11.71,11.71,0,0,0,91,17a2,2,0,0,1,4,0,15.48,15.48,0,0,1-1.39,6.76A11.74,11.74,0,0,0,92.53,29a11.67,11.67,0,0,0,1.08,5.24A15.57,15.57,0,0,1,95,41a15.46,15.46,0,0,1-1.39,6.75A11.74,11.74,0,0,0,92.53,53,2,2,0,0,1,90.53,55Z"/></svg>