<?xml version="1.0" ?><svg data-name="Слой 1" id="Слой_1" viewBox="0 0 128 128" xmlns="http://www.w3.org/2000/svg"><title/><path d="M54,77a2,2,0,0,0-2,2v23a2,2,0,0,0,4,0V79A2,2,0,0,0,54,77Z"/><path d="M74,77a2,2,0,0,0-2,2v23a2,2,0,0,0,4,0V79A2,2,0,0,0,74,77Z"/><path d="M74,64.2a14,14,0,1,0-19.11,0C49.48,65.23,44,70,44,76v26a2,2,0,0,0,4,0V76c0-3.89,4.63-8,9-8H72a8.43,8.43,0,0,1,8,8v26a2,2,0,0,0,4,0V76A12.36,12.36,0,0,0,74,64.2ZM54.46,54a10,10,0,1,1,10,10A10,10,0,0,1,54.46,54Z"/><path d="M101,75a2,2,0,0,0-2,2v24a2,2,0,0,0,4,0V77A2,2,0,0,0,101,75Z"/><path d="M101.93,65.05a11,11,0,1,0-8.44,4l.34,0L94,69h7a6.15,6.15,0,0,1,6,6V95a2,2,0,0,0,4,0V75A10.15,10.15,0,0,0,101.93,65.05ZM86.49,58a7,7,0,1,1,7,7A7,7,0,0,1,86.49,58Z"/><path d="M44,42A11,11,0,1,1,55,31,11,11,0,0,1,44,42Zm0-18a7,7,0,1,0,7,7A7,7,0,0,0,44,24Z"/><path d="M84,42A11,11,0,1,1,95,31,11,11,0,0,1,84,42Zm0-18a7,7,0,1,0,7,7A7,7,0,0,0,84,24Z"/><path d="M64,0a64,64,0,1,0,64,64A64.07,64.07,0,0,0,64,0Zm0,4a59.79,59.79,0,0,1,41,16.21L20.21,105A60,60,0,0,1,64,4Zm0,120a59.79,59.79,0,0,1-41-16.21L107.79,23A60,60,0,0,1,64,124Z"/><path d="M26.49,75a2,2,0,0,0-2,2v24a2,2,0,0,0,4,0V77A2,2,0,0,0,26.49,75Z"/><path d="M34,47a11,11,0,0,0-8.43,18,10.15,10.15,0,0,0-9.08,10V95a2,2,0,0,0,4,0V75a6.16,6.16,0,0,1,6-6h7l.17,0L34,69a11,11,0,0,0,0-22Zm0,18a7,7,0,1,1,7-7A7,7,0,0,1,34,65Z"/></svg>