<?xml version="1.0" ?><svg data-name="Слой 1" id="Слой_1" viewBox="0 0 128 128" xmlns="http://www.w3.org/2000/svg"><title/><path d="M101.53,91.21c3.22-10.89,8.61-29.13,8.61-38.77C110.14,32.86,104.14,0,64,0,47.59,0,35.24,5.85,27.28,17.38c-7.78,11.28-9.42,25.29-9.42,35.06,0,9.53,4.84,25.09,8,35.39,1.17,3.73,2.08,6.68,2.35,8a.14.14,0,0,1,0,.06c1.87,8.47,6,20,8,22,5.26,5.25,18.46,10,27.69,10,8.34,0,21.77-4.12,27.69-10,2.36-2.36,5.5-10.74,7.42-18.11a1.89,1.89,0,0,0,.09-.34c0-.12.06-.27.1-.42s.11-.44.16-.67C99.87,96.83,100.62,94.28,101.53,91.21Zm-1.86-7.88a22.13,22.13,0,0,0-6.24-9.76,103.61,103.61,0,0,0,10.42-6.08C102.63,72.77,101.1,78.36,99.67,83.33Zm-60.82-12c-7.1-3-14.93-7.23-15.7-8.86a1.3,1.3,0,0,0-.08-.17A68.79,68.79,0,0,1,22,55.41a30,30,0,0,0,6.31,5.07,2,2,0,0,0,3-1.4c0-.11,1.86-10.87,5.08-17.3C38.55,37.41,43.58,32.35,46,30c2.81,2.89,9.36,9.2,15.07,11.65,7.5,3.21,20.93,5.3,21.5,5.39a2,2,0,0,0,2.31-2,33.7,33.7,0,0,0-2.25-11.25c-.19-.47-.38-.92-.57-1.36a58.26,58.26,0,0,1,11.09,6.8c5.67,4.71,12.24,15.12,12.35,19.52,0,0,0,.05,0,.07-.11.72-.24,1.47-.37,2.23a.71.71,0,0,0-.08.15c-.78,1.65-8.79,6.44-16,10.07-2.12-.65-4.41-1.53-6.84-2.48C76.51,66.61,70.05,64.1,64,64.1c-6.66,0-14.31,3-20.46,5.43C41.85,70.2,40.25,70.82,38.85,71.31ZM64,4c33.08,0,41.33,23.77,42.07,45.09a50.31,50.31,0,0,0-10.32-12.9c-6.47-5.39-16.9-9.6-17.35-9.78A2,2,0,0,0,76,29.33a44.5,44.5,0,0,1,3,6,28.84,28.84,0,0,1,1.78,7.37c-4.22-.76-12.86-2.47-18-4.7-6.55-2.8-15-12-15.08-12.12a2,2,0,0,0-2.79-.16c-.36.32-8.74,7.7-12,14.28-2.41,4.8-4,11.53-4.86,15.39-2.16-1.67-4.85-4.29-5.95-7.24C22.86,32.13,29.34,4,64,4ZM24.5,68.57a84,84,0,0,0,9.94,5.17,21.42,21.42,0,0,0-5.91,9C27.22,78.5,25.73,73.49,24.5,68.57Zm64.36,46.56C84.21,119.77,72.37,124,64,124c-8.07,0-20.38-4.39-24.85-8.86-1.28-1.41-5.21-12.12-7-20a.37.37,0,0,1,0-.11c0-.25-.12-.54-.2-.86a26.35,26.35,0,0,1-.66-5c0-5.53,4.09-12.53,8.09-13.87,1.65-.54,3.56-1.3,5.59-2.1C50.84,71,58.1,68.1,64,68.1c5.3,0,11.12,2.27,16.76,4.46,2.79,1.09,5.43,2.11,7.91,2.82,4,1.15,8.28,8.82,8.15,14.67a35,35,0,0,1-1,6.57c-.23.87-.41,1.59-.52,2.11v0C93.52,105.59,90.65,113.34,88.86,115.13Z"/><path d="M73.61,62.64a2.08,2.08,0,0,0,.9.21,2,2,0,0,0,1.79-1.11,6.27,6.27,0,0,1,5.56-3.1,9.41,9.41,0,0,1,6.81,3.41,2,2,0,1,0,3.2-2.4,13.31,13.31,0,0,0-10-5A10.35,10.35,0,0,0,72.72,60,2,2,0,0,0,73.61,62.64Z"/><path d="M51.71,61.76a2,2,0,0,0,1.78,1.09,2.08,2.08,0,0,0,.9-.21A2,2,0,0,0,55.28,60a10.35,10.35,0,0,0-9.14-5.31,13.31,13.31,0,0,0-10,5,2,2,0,1,0,3.2,2.4,9.4,9.4,0,0,1,6.81-3.41A6.33,6.33,0,0,1,51.71,61.76Z"/><path d="M46.14,62a2,2,0,1,0,2,2A2,2,0,0,0,46.14,62Z"/><path d="M81.86,62a2,2,0,1,0,2,2A2,2,0,0,0,81.86,62Z"/><path d="M70.66,84.49A52.19,52.19,0,0,0,64,83.67a52.19,52.19,0,0,0-6.66.82,2,2,0,0,0,.35,4,2.19,2.19,0,0,0,.36,0,48.43,48.43,0,0,1,6-.76,48.43,48.43,0,0,1,6,.76,2,2,0,0,0,.71-3.94Z"/></svg>