<?xml version="1.0" ?><svg data-name="Слой 1" id="Слой_1" viewBox="0 0 128 128" xmlns="http://www.w3.org/2000/svg"><title/><path d="M72,128a2,2,0,0,1-2-1.57,100.61,100.61,0,0,0-6.29-18.53c-4.1,1-12.44,1.08-13.57.69-3.14-1.08-7.63-4.22-7.09-8.44l.23-1.78c.28-2.11.63-4.72.43-5.37a7.64,7.64,0,0,0-.86-1.61,3.53,3.53,0,0,1-.83-2.85A4.85,4.85,0,0,1,42.81,87c-1.68-1.16-4.21-3-2.88-5.36a9.76,9.76,0,0,0,.71-2.93c-.57-.23-1.43-.51-2-.7a10.93,10.93,0,0,1-3.38-1.46A6.44,6.44,0,0,1,34,69.19l.37-.65c5.11-9.11,6.14-11.56,6.33-12.22a8.2,8.2,0,0,0-1.4-2.13c-.26-.33-.5-.64-.7-.92-1.61-2.25-.71-22-.7-22.21.19-3.55,3.08-8.72,8.57-15.35C57.93,1.8,72.09-.47,82,.07,94.39.76,105,6,110.84,10.61,123.6,20.79,127,37.53,126,49.79c-.46,5.49-4.35,15.39-7.79,24.13-2.23,5.69-4.55,11.57-4.63,13.24-.16,3.38.53,9.24,2.24,11.44.83,1.07,3.27,2.45,5.42,3.67,3.51,2,6.28,3.55,6.72,5.78a2,2,0,0,1-3.9.89c-.46-.74-3.16-2.27-4.79-3.19-2.72-1.54-5.29-3-6.61-4.7-2.9-3.72-3.2-11.43-3.07-14.08.1-2.22,1.84-6.73,4.9-14.52,3.17-8.06,7.11-18.09,7.53-23,.32-3.88,1.2-23.84-13.67-35.71C98,5.44,68.7-4.94,49.5,18.26,44.78,24,42,28.72,41.84,31.29c-.27,4.91-.37,17.64.11,19.85.13.18.28.36.43.55,1,1.28,2.28,2.86,2.28,4.72,0,1-.52,2.81-6.85,14.09l-.36.64a2.77,2.77,0,0,0,.37,2.3,20.43,20.43,0,0,0,2,.72c2.57.84,4.43,1.44,4.72,3.22a12.59,12.59,0,0,1-.79,5.34c.43.36,1.11.83,1.48,1.09A10.81,10.81,0,0,1,46.77,85a2.54,2.54,0,0,1,.8,1.87,2.86,2.86,0,0,1-1.13,2.09l-.24.23.06.11a11.63,11.63,0,0,1,1.28,2.48c.49,1.47.19,3.73-.26,7.16l-.23,1.76c-.19,1.49,2.18,3.39,4.42,4.16A56.63,56.63,0,0,0,63.26,104a2.16,2.16,0,0,1,1.8-.28c.86.25,1.84.54,4.81,8.52a107.17,107.17,0,0,1,4.07,13.38A2,2,0,0,1,72.42,128,2.18,2.18,0,0,1,72,128Zm52.09-19Zm0-.14ZM65.77,107a2.42,2.42,0,0,1-.73.45A1.79,1.79,0,0,0,65.77,107ZM63,104.19l0,0ZM45.89,88.63Z"/><path d="M57.58,96.12a2,2,0,0,1-.93-3.77A21,21,0,0,0,65.59,64a2,2,0,0,1,3.55-1.84A25,25,0,0,1,58.5,95.89,1.93,1.93,0,0,1,57.58,96.12Z"/><path d="M12.64,84.89a2,2,0,0,1-1.78-1.08A25,25,0,0,1,21.5,50.11a2,2,0,1,1,1.85,3.54A21,21,0,0,0,14.41,82a2,2,0,0,1-.85,2.69A1.9,1.9,0,0,1,12.64,84.89Z"/><path d="M57.33,85.74a2,2,0,0,1-1.44-3.39,12.44,12.44,0,0,0-.3-17.56,2,2,0,1,1,2.78-2.87,16.43,16.43,0,0,1,.4,23.21A2,2,0,0,1,57.33,85.74Z"/><path d="M23,84.65a2,2,0,0,1-1.39-.57,16.41,16.41,0,0,1-.4-23.21,2,2,0,1,1,2.88,2.78,12.41,12.41,0,0,0,.3,17.56A2,2,0,0,1,23,84.65Z"/><path d="M35.4,92.93A7.42,7.42,0,0,0,30.18,90C13.84,88.52.79,112,.24,113a2,2,0,0,0-.13,1.6,2,2,0,0,0,1.08,1.19l8.14,3.62A5,5,0,0,0,9,121c0,1.76,1.16,3.44,3.26,4.74A13.25,13.25,0,0,0,19,127.65a8.72,8.72,0,0,0,3.94-.86c2.36-1.18,4.76-6.83,6-10.09a2,2,0,1,0-3.74-1.4c-1.38,3.67-3.28,7.38-4,7.91-1.57.78-4.35.48-6.48-.71C13.34,121.77,13,121.12,13,121c.17-1.64,5.1-9,9.59-14.82a2,2,0,0,0-3.18-2.44,124.2,124.2,0,0,0-8.33,12.07l-6.21-2.76C8.18,107.76,18.46,93,29.82,94a3.52,3.52,0,0,1,2.47,1.45c4.56,5.65,3.51,23.8,2.72,30.32A2,2,0,0,0,36.76,128H37a2,2,0,0,0,2-1.76C39.3,123.67,41.84,100.9,35.4,92.93Z"/></svg>