<?xml version="1.0" ?><svg data-name="Слой 1" id="Слой_1" viewBox="0 0 128 128" xmlns="http://www.w3.org/2000/svg"><title/><path d="M33.87,63.71a2,2,0,0,0-2,2V124h-7.4V87.06a2,2,0,0,0-4,0V124H13.06V65.71a2,2,0,0,0-4,0V126a2,2,0,0,0,2,2H33.87a2,2,0,0,0,2-2V65.71A2,2,0,0,0,33.87,63.71Z"/><path d="M32.61,49a14.93,14.93,0,0,0,1.3-20.72c-.07-.08-.14-.17-.21-.24a15,15,0,0,0-22.47,0,1.71,1.71,0,0,0-.18.2A14.95,14.95,0,0,0,12.32,49,12.79,12.79,0,0,0,0,61.8V91.08a2,2,0,0,0,4,0V61.8A8.79,8.79,0,0,1,12.78,53h1.89l6.15,9a2,2,0,0,0,3.3,0l6.14-9h1.89a8.79,8.79,0,0,1,8.78,8.78V91.08a2,2,0,0,0,4,0V61.8A12.79,12.79,0,0,0,32.61,49Zm-3.74-20a18.54,18.54,0,0,1-6.4,1.07,18.6,18.6,0,0,1-6.41-1.07,10.9,10.9,0,0,1,12.81,0ZM11.46,38a10.87,10.87,0,0,1,1.69-5.84,21.58,21.58,0,0,0,9.32,2,21.57,21.57,0,0,0,9.31-2A10.88,10.88,0,0,1,33.48,38a11,11,0,1,1-22,0Zm11,19.3L19.52,53h5.89Z"/><path d="M116.92,63.61a2,2,0,0,0-2,2V124H107.5V87a2,2,0,0,0-4,0v37H96.08V65.61a2,2,0,0,0-4,0V126a2,2,0,0,0,2,2h22.84a2,2,0,0,0,2-2V65.61A2,2,0,0,0,116.92,63.61Z"/><path d="M115.65,48.92A15,15,0,0,0,117,28.16l-.21-.24a15,15,0,0,0-22.5,0,1.29,1.29,0,0,0-.19.21,15,15,0,0,0,1.29,20.78A12.8,12.8,0,0,0,83,61.7V91a2,2,0,0,0,4,0V61.7a8.81,8.81,0,0,1,8.8-8.8h1.9l6.15,9a2,2,0,0,0,3.3,0l6.15-9h1.9a8.81,8.81,0,0,1,8.8,8.8V91a2,2,0,0,0,4,0V61.7A12.8,12.8,0,0,0,115.65,48.92Zm-3.72-20a19.51,19.51,0,0,1-12.86,0,11,11,0,0,1,12.86,0Zm-17.46,9A10.94,10.94,0,0,1,96.17,32a22.87,22.87,0,0,0,18.66,0,11,11,0,1,1-20.36,5.85Zm11,19.35-3-4.31h5.9Z"/><path d="M83.08,29.91a2,2,0,0,0,1.42.59,2,2,0,0,0,1.41-.59l6.5-6.5a2,2,0,0,0,0-2.82l-6.5-6.5a2,2,0,0,0-2.83,2.82L86.17,20H41.83l3-3A2,2,0,0,0,42,14.18l-6.5,6.5a2,2,0,0,0,0,2.83L42,30a2,2,0,0,0,2.83-2.83L41.64,24H86.17l-3.09,3.09A2,2,0,0,0,83.08,29.91Z"/><path d="M50.41,7.41,51,6.83V14a2,2,0,0,0,4,0V2A2,2,0,0,0,53.77.15a2,2,0,0,0-2.18.44l-4,4a2,2,0,0,0,2.82,2.82Z"/><path d="M61,16a2,2,0,0,0,2-2V10c0-1.84,1-2.5,2-2.5s2,.66,2,2.5v4a2,2,0,0,0,4,0V10c0-1.84,1-2.5,2-2.5s2,.66,2,2.5v4a2,2,0,0,0,4,0V10c0-4.27-3-6.5-6-6.5a5.93,5.93,0,0,0-4,1.55A5.93,5.93,0,0,0,65,3.5a6,6,0,0,0-3,.79A2,2,0,0,0,59,6v8A2,2,0,0,0,61,16Z"/></svg>