<?xml version="1.0" ?><svg data-name="Layer 1" id="Layer_1" viewBox="0 0 256 256" xmlns="http://www.w3.org/2000/svg"><defs><style>.cls-1{fill:#787878;}</style></defs><title/><path class="cls-1" d="M154.73,39.34h-9.68V25.51h9.68a3.46,3.46,0,0,0,0-6.91H101.27a3.46,3.46,0,0,0,0,6.91H111V39.34h-9.68a3.46,3.46,0,0,0,0,6.91h7.09V149.4h0v0a3.56,3.56,0,0,0,.21,1c0,.1,0,.19.06.29h0v0l13.31,32a3.42,3.42,0,0,0,2.6,2V234a3.46,3.46,0,0,0,6.91,0V184.81a3.41,3.41,0,0,0,2.59-2l13.31-32v0h0c0-.08,0-.16,0-.24a3.52,3.52,0,0,0,.22-1.09v0h0V46.25h7.09a3.46,3.46,0,0,0,0-6.91ZM138.14,25.51V39.34H117.86V25.51ZM128.56,178h-1.11L117,152.88h11.23a3.46,3.46,0,1,0,0-6.91h-13v-3.81h5.46a3.46,3.46,0,0,0,0-6.91h-5.46v-3.81h5.46a3.46,3.46,0,0,0,0-6.91h-5.46v-3.81h5.46a3.46,3.46,0,0,0,0-6.91h-5.46V110h13a3.46,3.46,0,1,0,0-6.91h-13V99.28h5.46a3.46,3.46,0,0,0,0-6.91h-5.46V88.56h5.46a3.46,3.46,0,0,0,0-6.91h-5.46v-3.8h5.46a3.46,3.46,0,0,0,0-6.91h-5.46V67.13h13a3.46,3.46,0,1,0,0-6.91h-13v-14h25.46V148.74Z"/></svg>